<?xml version="1.0" encoding="UTF-8"?>
<svg xmlns="http://www.w3.org/2000/svg" viewBox="0 0 760 878" font-family="Segoe UI, Arial, sans-serif">
<defs><marker id="a_toss" markerWidth="10" markerHeight="10" refX="7" refY="3" orient="auto" markerUnits="strokeWidth"><path d="M0,0 L7,3 L0,6 Z" fill="#8a8f98"/></marker><marker id="a_pass" markerWidth="10" markerHeight="10" refX="7" refY="3" orient="auto" markerUnits="strokeWidth"><path d="M0,0 L7,3 L0,6 Z" fill="#2563c9"/></marker><marker id="a_set" markerWidth="10" markerHeight="10" refX="7" refY="3" orient="auto" markerUnits="strokeWidth"><path d="M0,0 L7,3 L0,6 Z" fill="#1f9d55"/></marker><marker id="a_attack" markerWidth="10" markerHeight="10" refX="7" refY="3" orient="auto" markerUnits="strokeWidth"><path d="M0,0 L7,3 L0,6 Z" fill="#d6342c"/></marker><marker id="a_serve" markerWidth="10" markerHeight="10" refX="7" refY="3" orient="auto" markerUnits="strokeWidth"><path d="M0,0 L7,3 L0,6 Z" fill="#7b3fb5"/></marker><marker id="a_move" markerWidth="10" markerHeight="10" refX="7" refY="3" orient="auto" markerUnits="strokeWidth"><path d="M0,0 L7,3 L0,6 Z" fill="#e8870b"/></marker></defs>
<rect x="0" y="0" width="760" height="878" fill="#ffffff"/>
<text x="380.0" y="38" text-anchor="middle" font-size="23" font-weight="700" fill="#16325c">Система 6:0 — ротация 1</text>
<text x="380.0" y="62" text-anchor="middle" font-size="14" fill="#5b6b82">Базова разстановка 6:0 — всеки разпределя от предна зона</text>
<rect x="110" y="90" width="540" height="720" fill="#eef4fb" stroke="#16325c" stroke-width="3"/><line x1="110" y1="330" x2="650" y2="330" stroke="#16325c" stroke-width="2"/><line x1="110" y1="570" x2="650" y2="570" stroke="#16325c" stroke-width="2"/><line x1="110" y1="450" x2="650" y2="450" stroke="#16325c" stroke-width="6"/><g stroke="#16325c" stroke-width="1"><line x1="125" y1="444" x2="125" y2="456"/><line x1="155" y1="444" x2="155" y2="456"/><line x1="185" y1="444" x2="185" y2="456"/><line x1="215" y1="444" x2="215" y2="456"/><line x1="245" y1="444" x2="245" y2="456"/><line x1="275" y1="444" x2="275" y2="456"/><line x1="305" y1="444" x2="305" y2="456"/><line x1="335" y1="444" x2="335" y2="456"/><line x1="365" y1="444" x2="365" y2="456"/><line x1="395" y1="444" x2="395" y2="456"/><line x1="425" y1="444" x2="425" y2="456"/><line x1="455" y1="444" x2="455" y2="456"/><line x1="485" y1="444" x2="485" y2="456"/><line x1="515" y1="444" x2="515" y2="456"/><line x1="545" y1="444" x2="545" y2="456"/><line x1="575" y1="444" x2="575" y2="456"/><line x1="605" y1="444" x2="605" y2="456"/><line x1="635" y1="444" x2="635" y2="456"/></g><text x="380.0" y="440" text-anchor="middle" font-size="12" fill="#16325c" font-weight="600">МРЕЖА</text>
<circle cx="180" cy="500" r="15" fill="#475569" stroke="#16325c" stroke-width="2"/><text x="180" y="505" text-anchor="middle" font-size="13" fill="#fff" font-weight="700">4</text><circle cx="380" cy="500" r="15" fill="#2563c9" stroke="#16325c" stroke-width="2"/><text x="380" y="505" text-anchor="middle" font-size="13" fill="#fff" font-weight="700">3</text><circle cx="580" cy="500" r="15" fill="#475569" stroke="#16325c" stroke-width="2"/><text x="580" y="505" text-anchor="middle" font-size="13" fill="#fff" font-weight="700">2</text><circle cx="180" cy="700" r="15" fill="#475569" stroke="#16325c" stroke-width="2"/><text x="180" y="705" text-anchor="middle" font-size="13" fill="#fff" font-weight="700">5</text><circle cx="380" cy="700" r="15" fill="#475569" stroke="#16325c" stroke-width="2"/><text x="380" y="705" text-anchor="middle" font-size="13" fill="#fff" font-weight="700">6</text><circle cx="580" cy="700" r="15" fill="#475569" stroke="#16325c" stroke-width="2"/><text x="580" y="705" text-anchor="middle" font-size="13" fill="#fff" font-weight="700">1</text><text x="380" y="790" text-anchor="middle" font-size="12" fill="#5b6b82">ротация 1 — разпределя играчът в зона 3</text>
<g transform="translate(110,838)" font-size="13" fill="#33415c"><g transform="translate(0,0)"><circle cx="8" cy="-4" r="9" fill="#475569"/><text x="46" y="4">Играч</text></g><g transform="translate(250,0)"><circle cx="8" cy="-4" r="9" fill="#2563c9"/><text x="46" y="4">Разпределител</text></g></g>
</svg>