<?xml version="1.0" encoding="UTF-8"?>
<svg xmlns="http://www.w3.org/2000/svg" viewBox="0 0 760 950" font-family="Segoe UI, Arial, sans-serif">
<defs><marker id="a_toss" markerWidth="10" markerHeight="10" refX="7" refY="3" orient="auto" markerUnits="strokeWidth"><path d="M0,0 L7,3 L0,6 Z" fill="#8a8f98"/></marker><marker id="a_pass" markerWidth="10" markerHeight="10" refX="7" refY="3" orient="auto" markerUnits="strokeWidth"><path d="M0,0 L7,3 L0,6 Z" fill="#2563c9"/></marker><marker id="a_set" markerWidth="10" markerHeight="10" refX="7" refY="3" orient="auto" markerUnits="strokeWidth"><path d="M0,0 L7,3 L0,6 Z" fill="#1f9d55"/></marker><marker id="a_attack" markerWidth="10" markerHeight="10" refX="7" refY="3" orient="auto" markerUnits="strokeWidth"><path d="M0,0 L7,3 L0,6 Z" fill="#d6342c"/></marker><marker id="a_serve" markerWidth="10" markerHeight="10" refX="7" refY="3" orient="auto" markerUnits="strokeWidth"><path d="M0,0 L7,3 L0,6 Z" fill="#7b3fb5"/></marker><marker id="a_move" markerWidth="10" markerHeight="10" refX="7" refY="3" orient="auto" markerUnits="strokeWidth"><path d="M0,0 L7,3 L0,6 Z" fill="#e8870b"/></marker></defs>
<rect x="0" y="0" width="760" height="950" fill="#ffffff"/>
<text x="380.0" y="38" text-anchor="middle" font-size="23" font-weight="700" fill="#16325c">Посрещане плюс атака (свързване)</text>
<text x="380.0" y="62" text-anchor="middle" font-size="14" fill="#5b6b82">Верига: посрещане, разпределение и нападение</text>
<rect x="110" y="90" width="540" height="720" fill="#eef4fb" stroke="#16325c" stroke-width="3"/><line x1="110" y1="330" x2="650" y2="330" stroke="#16325c" stroke-width="2"/><line x1="110" y1="570" x2="650" y2="570" stroke="#16325c" stroke-width="2"/><line x1="110" y1="450" x2="650" y2="450" stroke="#16325c" stroke-width="6"/><g stroke="#16325c" stroke-width="1"><line x1="125" y1="444" x2="125" y2="456"/><line x1="155" y1="444" x2="155" y2="456"/><line x1="185" y1="444" x2="185" y2="456"/><line x1="215" y1="444" x2="215" y2="456"/><line x1="245" y1="444" x2="245" y2="456"/><line x1="275" y1="444" x2="275" y2="456"/><line x1="305" y1="444" x2="305" y2="456"/><line x1="335" y1="444" x2="335" y2="456"/><line x1="365" y1="444" x2="365" y2="456"/><line x1="395" y1="444" x2="395" y2="456"/><line x1="425" y1="444" x2="425" y2="456"/><line x1="455" y1="444" x2="455" y2="456"/><line x1="485" y1="444" x2="485" y2="456"/><line x1="515" y1="444" x2="515" y2="456"/><line x1="545" y1="444" x2="545" y2="456"/><line x1="575" y1="444" x2="575" y2="456"/><line x1="605" y1="444" x2="605" y2="456"/><line x1="635" y1="444" x2="635" y2="456"/></g><text x="380.0" y="440" text-anchor="middle" font-size="12" fill="#16325c" font-weight="600">МРЕЖА</text>
<rect x="366" y="106" width="28" height="28" rx="5" fill="#3a4250"/><text x="380" y="125" text-anchor="middle" font-size="14" fill="#fff" font-weight="700">Т</text><circle cx="404" cy="120" r="7" fill="#f6a623" stroke="#b9760a" stroke-width="1.5"/><path d="M 380,140 L 280,612" fill="none" stroke="#7b3fb5" stroke-width="3" stroke-dasharray="10 4" marker-end="url(#a_serve)"/><path d="M 284,624 Q 380,540 436,492" fill="none" stroke="#2563c9" stroke-width="3" marker-end="url(#a_pass)"/><path d="M 430,484 Q 320,470 206,500" fill="none" stroke="#1f9d55" stroke-width="3.5" marker-end="url(#a_set)"/><path d="M 192,486 L 540,250" fill="none" stroke="#d6342c" stroke-width="4" marker-end="url(#a_attack)"/><circle cx="280" cy="628" r="15" fill="#d97706" stroke="#16325c" stroke-width="2"/><text x="280" y="633" text-anchor="middle" font-size="13" fill="#fff" font-weight="700">П</text><circle cx="460" cy="500" r="15" fill="#2563c9" stroke="#16325c" stroke-width="2"/><text x="460" y="505" text-anchor="middle" font-size="13" fill="#fff" font-weight="700">Р</text><circle cx="190" cy="500" r="15" fill="#d6342c" stroke="#16325c" stroke-width="2"/><text x="190" y="505" text-anchor="middle" font-size="13" fill="#fff" font-weight="700">Н</text>
<g transform="translate(110,838)" font-size="13" fill="#33415c"><g transform="translate(0,0)"><line x1="0" y1="0" x2="34" y2="0" stroke="#7b3fb5" stroke-width="3" stroke-dasharray="10 4" marker-end="url(#a_serve)"/><text x="46" y="4">Сервис</text></g><g transform="translate(250,0)"><line x1="0" y1="0" x2="34" y2="0" stroke="#2563c9" stroke-width="3" marker-end="url(#a_pass)"/><text x="46" y="4">Посрещане / пас</text></g><g transform="translate(0,24)"><line x1="0" y1="0" x2="34" y2="0" stroke="#1f9d55" stroke-width="3.5" marker-end="url(#a_set)"/><text x="46" y="4">Разпределение</text></g><g transform="translate(250,24)"><line x1="0" y1="0" x2="34" y2="0" stroke="#d6342c" stroke-width="4" marker-end="url(#a_attack)"/><text x="46" y="4">Нападение (удар)</text></g><g transform="translate(0,48)"><circle cx="8" cy="-4" r="9" fill="#d97706"/><text x="46" y="4">Либеро</text></g><g transform="translate(250,48)"><circle cx="8" cy="-4" r="9" fill="#2563c9"/><text x="46" y="4">Разпределител</text></g><g transform="translate(0,72)"><circle cx="8" cy="-4" r="9" fill="#d6342c"/><text x="46" y="4">Нападател</text></g><g transform="translate(250,72)"><rect x="0" y="-13" width="18" height="18" rx="4" fill="#3a4250"/><text x="46" y="4">Треньор</text></g></g>
</svg>